<svg width="760" height="275" viewBox="0 0 760 275" fill="none" xmlns="http://www.w3.org/2000/svg">
<rect width="760" height="275" fill="#FDFDFD"/>
<g filter="url(#filter0_b_0_1)">
<ellipse cx="170" cy="140.5" rx="142" ry="133.5" fill="black"/>
<ellipse cx="170" cy="140.5" rx="142" ry="133.5" stroke="#FDFDFD"/>
</g>
<ellipse cx="142" cy="128" rx="142" ry="128" fill="#FDFDFD"/>
<ellipse cx="140" cy="112" rx="74" ry="90" fill="#F8C4C4"/>
<path d="M142 22L159.063 84.1885H214.28L169.609 122.623L186.672 184.812L142 146.377L97.3283 184.812L114.391 122.623L69.7197 84.1885H124.937L142 22Z" fill="black"/>
<path d="M359.651 114.091C359.462 111.456 358.452 109.292 356.62 107.598C354.801 105.904 352.398 105.057 349.412 105.057C347.455 105.057 345.704 105.433 344.161 106.186C342.618 106.939 341.4 107.974 340.51 109.292C339.619 110.596 339.173 112.096 339.173 113.79C339.173 114.768 339.336 115.672 339.663 116.5C339.989 117.328 340.484 118.087 341.15 118.777C341.827 119.455 342.674 120.07 343.69 120.622C344.719 121.161 345.924 121.644 347.304 122.071L351.67 123.426C353.339 123.941 354.782 124.518 355.999 125.158C357.216 125.798 358.22 126.519 359.011 127.322C359.814 128.113 360.41 128.997 360.799 129.976C361.188 130.942 361.382 132.021 361.382 133.213C361.382 135.221 360.868 137.009 359.839 138.577C358.81 140.145 357.373 141.375 355.529 142.266C353.684 143.157 351.545 143.602 349.111 143.602C346.764 143.602 344.713 143.194 342.956 142.379C341.2 141.551 339.807 140.415 338.778 138.972C337.762 137.517 337.191 135.848 337.065 133.966H338.27C338.395 135.622 338.916 137.084 339.832 138.351C340.748 139.618 341.99 140.61 343.559 141.325C345.14 142.04 346.99 142.398 349.111 142.398C351.319 142.398 353.251 142.015 354.908 141.25C356.576 140.472 357.869 139.393 358.785 138.012C359.713 136.632 360.178 135.032 360.178 133.213C360.178 131.833 359.876 130.622 359.274 129.581C358.672 128.527 357.725 127.598 356.432 126.795C355.14 125.992 353.452 125.271 351.369 124.631L347.003 123.276C343.979 122.322 341.714 121.061 340.208 119.493C338.715 117.924 337.969 116.023 337.969 113.79C337.969 111.895 338.464 110.201 339.456 108.708C340.447 107.202 341.802 106.017 343.521 105.151C345.252 104.285 347.216 103.852 349.412 103.852C351.62 103.852 353.559 104.291 355.228 105.17C356.896 106.048 358.22 107.259 359.199 108.802C360.178 110.346 360.73 112.108 360.855 114.091H359.651ZM377.799 143.602C376.218 143.602 374.756 143.276 373.413 142.624C372.083 141.971 371.011 141.018 370.195 139.763C369.392 138.508 368.991 136.977 368.991 135.17C368.991 134.192 369.147 133.276 369.461 132.423C369.775 131.557 370.327 130.773 371.117 130.07C371.908 129.367 373.012 128.765 374.43 128.263C375.86 127.761 377.686 127.379 379.907 127.115C381.237 126.964 382.491 126.789 383.671 126.588C384.85 126.387 385.81 126.086 386.551 125.685C387.291 125.283 387.661 124.706 387.661 123.953V122.222C387.661 120.001 386.914 118.219 385.421 116.876C383.928 115.521 381.939 114.844 379.455 114.844C377.422 114.844 375.647 115.295 374.129 116.199C372.61 117.09 371.55 118.344 370.948 119.963L369.819 119.511C370.27 118.307 370.967 117.265 371.908 116.387C372.849 115.509 373.966 114.831 375.258 114.354C376.55 113.878 377.949 113.639 379.455 113.639C380.923 113.639 382.234 113.859 383.389 114.298C384.555 114.725 385.547 115.327 386.362 116.105C387.178 116.87 387.799 117.774 388.226 118.815C388.652 119.856 388.866 120.992 388.866 122.222V143H387.661V137.128H387.51C386.908 138.433 386.124 139.575 385.158 140.553C384.204 141.519 383.1 142.272 381.845 142.812C380.603 143.339 379.254 143.602 377.799 143.602ZM377.799 142.398C379.631 142.398 381.293 141.908 382.786 140.93C384.279 139.938 385.465 138.565 386.343 136.808C387.222 135.039 387.661 132.987 387.661 130.653V126.287C387.31 126.55 386.883 126.783 386.381 126.983C385.892 127.184 385.333 127.366 384.706 127.529C384.091 127.68 383.42 127.811 382.692 127.924C381.964 128.037 381.187 128.144 380.358 128.244C377.774 128.545 375.741 129.003 374.26 129.618C372.78 130.233 371.732 131.005 371.117 131.933C370.502 132.862 370.195 133.941 370.195 135.17C370.195 137.354 370.923 139.104 372.378 140.422C373.846 141.739 375.653 142.398 377.799 142.398ZM400.149 131.331V129.148H400.6L415.958 114.091H417.69L404.515 127.04L404.365 127.19L400.149 131.331ZM399.245 143V104.455H400.45V143H399.245ZM416.561 143L403.913 127.04L404.816 126.287L418.142 143H416.561ZM443.743 133.514V114.091H444.947V143H443.743V138.408H443.592C442.915 139.913 441.798 141.118 440.242 142.021C438.699 142.925 436.93 143.376 434.935 143.376C433.002 143.376 431.296 142.956 429.815 142.115C428.335 141.275 427.174 140.114 426.333 138.634C425.493 137.153 425.072 135.446 425.072 133.514V114.091H426.277V133.514C426.277 136.074 427.08 138.157 428.686 139.763C430.292 141.369 432.375 142.172 434.935 142.172C436.641 142.172 438.153 141.802 439.471 141.061C440.801 140.321 441.842 139.299 442.595 137.994C443.36 136.689 443.743 135.196 443.743 133.514ZM455.195 143V114.091H456.4V118.683H456.551C457.228 117.178 458.339 115.973 459.882 115.07C461.438 114.166 463.213 113.714 465.208 113.714C465.359 113.714 465.459 113.714 465.509 113.714C465.56 113.714 465.66 113.714 465.811 113.714V114.919C465.66 114.919 465.56 114.919 465.509 114.919C465.459 114.919 465.359 114.919 465.208 114.919C463.502 114.919 461.984 115.289 460.654 116.029C459.336 116.77 458.295 117.792 457.529 119.097C456.776 120.402 456.4 121.895 456.4 123.577V143H455.195ZM479.658 143.602C478.077 143.602 476.615 143.276 475.273 142.624C473.943 141.971 472.87 141.018 472.054 139.763C471.251 138.508 470.85 136.977 470.85 135.17C470.85 134.192 471.007 133.276 471.32 132.423C471.634 131.557 472.186 130.773 472.977 130.07C473.767 129.367 474.871 128.765 476.289 128.263C477.72 127.761 479.545 127.379 481.766 127.115C483.096 126.964 484.351 126.789 485.53 126.588C486.71 126.387 487.67 126.086 488.41 125.685C489.15 125.283 489.52 124.706 489.52 123.953V122.222C489.52 120.001 488.774 118.219 487.281 116.876C485.787 115.521 483.799 114.844 481.314 114.844C479.282 114.844 477.506 115.295 475.988 116.199C474.47 117.09 473.41 118.344 472.807 119.963L471.678 119.511C472.13 118.307 472.826 117.265 473.767 116.387C474.708 115.509 475.825 114.831 477.117 114.354C478.41 113.878 479.809 113.639 481.314 113.639C482.782 113.639 484.094 113.859 485.248 114.298C486.415 114.725 487.406 115.327 488.222 116.105C489.037 116.87 489.658 117.774 490.085 118.815C490.512 119.856 490.725 120.992 490.725 122.222V143H489.52V137.128H489.37C488.767 138.433 487.983 139.575 487.017 140.553C486.064 141.519 484.959 142.272 483.705 142.812C482.462 143.339 481.114 143.602 479.658 143.602ZM479.658 142.398C481.49 142.398 483.153 141.908 484.646 140.93C486.139 139.938 487.325 138.565 488.203 136.808C489.081 135.039 489.52 132.987 489.52 130.653V126.287C489.169 126.55 488.742 126.783 488.241 126.983C487.751 127.184 487.193 127.366 486.565 127.529C485.951 127.68 485.279 127.811 484.552 127.924C483.824 128.037 483.046 128.144 482.218 128.244C479.633 128.545 477.6 129.003 476.12 129.618C474.639 130.233 473.591 131.005 472.977 131.933C472.362 132.862 472.054 133.941 472.054 135.17C472.054 137.354 472.782 139.104 474.238 140.422C475.706 141.739 477.513 142.398 479.658 142.398ZM523.238 143.602C521.657 143.602 520.195 143.276 518.853 142.624C517.523 141.971 516.45 141.018 515.634 139.763C514.831 138.508 514.43 136.977 514.43 135.17C514.43 134.192 514.587 133.276 514.9 132.423C515.214 131.557 515.766 130.773 516.557 130.07C517.347 129.367 518.451 128.765 519.869 128.263C521.3 127.761 523.125 127.379 525.346 127.115C526.676 126.964 527.931 126.789 529.11 126.588C530.29 126.387 531.25 126.086 531.99 125.685C532.73 125.283 533.1 124.706 533.1 123.953V122.222C533.1 120.001 532.354 118.219 530.861 116.876C529.368 115.521 527.379 114.844 524.894 114.844C522.862 114.844 521.086 115.295 519.568 116.199C518.05 117.09 516.99 118.344 516.387 119.963L515.258 119.511C515.71 118.307 516.406 117.265 517.347 116.387C518.288 115.509 519.405 114.831 520.697 114.354C521.99 113.878 523.389 113.639 524.894 113.639C526.362 113.639 527.674 113.859 528.828 114.298C529.995 114.725 530.986 115.327 531.802 116.105C532.617 116.87 533.238 117.774 533.665 118.815C534.092 119.856 534.305 120.992 534.305 122.222V143H533.1V137.128H532.95C532.348 138.433 531.563 139.575 530.597 140.553C529.644 141.519 528.539 142.272 527.285 142.812C526.043 143.339 524.694 143.602 523.238 143.602ZM523.238 142.398C525.07 142.398 526.733 141.908 528.226 140.93C529.719 139.938 530.905 138.565 531.783 136.808C532.661 135.039 533.1 132.987 533.1 130.653V126.287C532.749 126.55 532.322 126.783 531.821 126.983C531.331 127.184 530.773 127.366 530.146 127.529C529.531 127.68 528.859 127.811 528.132 127.924C527.404 128.037 526.626 128.144 525.798 128.244C523.213 128.545 521.18 129.003 519.7 129.618C518.219 130.233 517.172 131.005 516.557 131.933C515.942 132.862 515.634 133.941 515.634 135.17C515.634 137.354 516.362 139.104 517.818 140.422C519.286 141.739 521.093 142.398 523.238 142.398ZM545.889 123.577V143H544.685V114.091H545.889V118.683H546.04C546.717 117.178 547.828 115.973 549.371 115.07C550.927 114.166 552.703 113.714 554.698 113.714C556.63 113.714 558.336 114.135 559.817 114.975C561.297 115.816 562.458 116.977 563.299 118.457C564.139 119.938 564.56 121.644 564.56 123.577V143H563.355V123.577C563.355 121.017 562.552 118.934 560.946 117.328C559.34 115.722 557.257 114.919 554.698 114.919C552.991 114.919 551.473 115.289 550.143 116.029C548.825 116.77 547.784 117.792 547.019 119.097C546.266 120.402 545.889 121.895 545.889 123.577ZM584.218 143.602C581.935 143.602 579.958 142.95 578.29 141.645C576.621 140.327 575.335 138.539 574.431 136.281C573.528 134.022 573.076 131.469 573.076 128.621C573.076 125.785 573.534 123.238 574.45 120.979C575.366 118.721 576.659 116.933 578.327 115.615C579.996 114.298 581.96 113.639 584.218 113.639C585.749 113.639 587.161 113.959 588.453 114.599C589.745 115.226 590.868 116.13 591.822 117.309C592.776 118.476 593.503 119.863 594.005 121.469H594.156V104.455H595.36V143H594.156V135.773H594.005C593.478 137.366 592.744 138.753 591.803 139.932C590.862 141.099 589.745 142.002 588.453 142.642C587.173 143.282 585.762 143.602 584.218 143.602ZM584.218 142.398C586.264 142.398 588.026 141.795 589.507 140.591C591 139.374 592.148 137.73 592.951 135.66C593.754 133.577 594.156 131.231 594.156 128.621C594.156 126.011 593.748 123.671 592.932 121.6C592.129 119.518 590.981 117.874 589.488 116.669C588.008 115.452 586.251 114.844 584.218 114.844C582.186 114.844 580.423 115.452 578.93 116.669C577.449 117.874 576.301 119.518 575.485 121.6C574.682 123.671 574.281 126.011 574.281 128.621C574.281 131.231 574.682 133.577 575.485 135.66C576.288 137.73 577.43 139.374 578.911 140.591C580.404 141.795 582.173 142.398 584.218 142.398ZM622.293 143V104.455H633.586C635.744 104.455 637.651 104.938 639.307 105.904C640.976 106.87 642.281 108.2 643.222 109.894C644.176 111.588 644.653 113.539 644.653 115.747C644.653 117.93 644.176 119.869 643.222 121.563C642.281 123.244 640.976 124.568 639.307 125.534C637.651 126.488 635.744 126.964 633.586 126.964H622.896V125.76H633.586C635.518 125.76 637.225 125.333 638.705 124.48C640.186 123.627 641.346 122.447 642.187 120.942C643.028 119.436 643.448 117.705 643.448 115.747C643.448 113.777 643.028 112.033 642.187 110.515C641.346 108.997 640.186 107.811 638.705 106.958C637.225 106.092 635.518 105.659 633.586 105.659H623.498V143H622.293ZM664.062 143.602C661.54 143.602 659.331 142.944 657.437 141.626C655.555 140.309 654.093 138.521 653.051 136.262C652.01 134.004 651.489 131.456 651.489 128.621C651.489 125.785 652.01 123.238 653.051 120.979C654.105 118.721 655.536 116.933 657.343 115.615C659.15 114.298 661.188 113.639 663.46 113.639C665.141 113.639 666.697 113.997 668.127 114.712C669.57 115.427 670.825 116.418 671.891 117.686C672.958 118.953 673.786 120.415 674.376 122.071C674.978 123.715 675.279 125.471 675.279 127.341V128.545H652.092V127.341H674.075C674.075 125.02 673.598 122.918 672.644 121.036C671.691 119.141 670.411 117.636 668.805 116.519C667.199 115.402 665.417 114.844 663.46 114.844C661.477 114.844 659.683 115.433 658.077 116.613C656.471 117.792 655.185 119.398 654.218 121.431C653.252 123.464 652.744 125.76 652.694 128.32V128.47C652.694 130.992 653.133 133.313 654.011 135.434C654.902 137.542 656.195 139.23 657.888 140.497C659.582 141.764 661.64 142.398 664.062 142.398C665.844 142.398 667.337 142.084 668.541 141.457C669.758 140.829 670.731 140.108 671.458 139.292C672.199 138.477 672.745 137.78 673.096 137.203L674.075 137.881C673.648 138.608 673.008 139.418 672.155 140.309C671.302 141.199 670.21 141.971 668.88 142.624C667.55 143.276 665.944 143.602 664.062 143.602ZM692.844 114.091V115.295H681.401V114.091H692.844ZM685.617 107.165H686.821V136.902C686.821 138.031 687.072 139.004 687.574 139.819C688.076 140.622 688.741 141.243 689.569 141.683C690.397 142.109 691.288 142.322 692.242 142.322C692.605 142.322 692.938 142.291 693.239 142.228C693.553 142.166 693.873 142.071 694.199 141.946L694.575 143.075C694.199 143.213 693.829 143.32 693.465 143.395C693.101 143.483 692.693 143.527 692.242 143.527C691.062 143.527 689.964 143.257 688.948 142.718C687.944 142.178 687.135 141.413 686.52 140.422C685.918 139.43 685.617 138.257 685.617 136.902V107.165ZM709.463 143.602C707.882 143.602 706.42 143.276 705.078 142.624C703.747 141.971 702.675 141.018 701.859 139.763C701.056 138.508 700.655 136.977 700.655 135.17C700.655 134.192 700.811 133.276 701.125 132.423C701.439 131.557 701.991 130.773 702.781 130.07C703.572 129.367 704.676 128.765 706.094 128.263C707.524 127.761 709.35 127.379 711.571 127.115C712.901 126.964 714.156 126.789 715.335 126.588C716.514 126.387 717.474 126.086 718.215 125.685C718.955 125.283 719.325 124.706 719.325 123.953V122.222C719.325 120.001 718.578 118.219 717.085 116.876C715.592 115.521 713.603 114.844 711.119 114.844C709.086 114.844 707.311 115.295 705.793 116.199C704.274 117.09 703.214 118.344 702.612 119.963L701.483 119.511C701.934 118.307 702.631 117.265 703.572 116.387C704.513 115.509 705.63 114.831 706.922 114.354C708.214 113.878 709.613 113.639 711.119 113.639C712.587 113.639 713.898 113.859 715.053 114.298C716.22 114.725 717.211 115.327 718.026 116.105C718.842 116.87 719.463 117.774 719.89 118.815C720.316 119.856 720.53 120.992 720.53 122.222V143H719.325V137.128H719.174C718.572 138.433 717.788 139.575 716.822 140.553C715.868 141.519 714.764 142.272 713.509 142.812C712.267 143.339 710.918 143.602 709.463 143.602ZM709.463 142.398C711.295 142.398 712.957 141.908 714.45 140.93C715.944 139.938 717.129 138.565 718.008 136.808C718.886 135.039 719.325 132.987 719.325 130.653V126.287C718.974 126.55 718.547 126.783 718.045 126.983C717.556 127.184 716.997 127.366 716.37 127.529C715.755 127.68 715.084 127.811 714.356 127.924C713.629 128.037 712.851 128.144 712.022 128.244C709.438 128.545 707.405 129.003 705.924 129.618C704.444 130.233 703.396 131.005 702.781 131.933C702.167 132.862 701.859 133.941 701.859 135.17C701.859 137.354 702.587 139.104 704.042 140.422C705.51 141.739 707.317 142.398 709.463 142.398ZM732.114 104.455V143H730.909V104.455H732.114ZM759.663 120.189L758.459 120.49C758.07 119.235 757.524 118.194 756.821 117.366C756.131 116.525 755.284 115.898 754.28 115.484C753.277 115.057 752.11 114.844 750.78 114.844C748.471 114.844 746.601 115.433 745.171 116.613C743.741 117.78 743.025 119.323 743.025 121.243C743.025 122.761 743.508 124.035 744.475 125.064C745.453 126.092 746.928 126.852 748.898 127.341L753.415 128.47C755.535 128.997 757.141 129.888 758.233 131.143C759.337 132.397 759.889 133.916 759.889 135.697C759.889 137.266 759.475 138.646 758.647 139.838C757.831 141.03 756.702 141.959 755.259 142.624C753.816 143.276 752.147 143.602 750.253 143.602C747.68 143.602 745.579 142.975 743.948 141.72C742.316 140.465 741.256 138.684 740.767 136.375L741.971 136.074C742.398 138.119 743.308 139.687 744.7 140.779C746.106 141.858 747.956 142.398 750.253 142.398C752.762 142.398 754.795 141.783 756.351 140.553C757.907 139.324 758.684 137.705 758.684 135.697C758.684 134.204 758.22 132.943 757.292 131.914C756.363 130.886 754.97 130.139 753.113 129.675L748.596 128.545C746.376 127.993 744.688 127.09 743.534 125.835C742.392 124.58 741.821 123.05 741.821 121.243C741.821 119.725 742.197 118.401 742.95 117.272C743.715 116.13 744.769 115.239 746.112 114.599C747.467 113.959 749.023 113.639 750.78 113.639C753.013 113.639 754.876 114.191 756.369 115.295C757.863 116.387 758.961 118.018 759.663 120.189ZM366.351 180.5C366.125 179.183 365.661 177.859 364.958 176.529C364.268 175.186 363.346 173.957 362.191 172.84C361.05 171.723 359.694 170.826 358.126 170.148C356.558 169.471 354.782 169.132 352.8 169.132C349.851 169.132 347.266 169.91 345.045 171.466C342.837 173.009 341.118 175.18 339.888 177.978C338.659 180.763 338.044 184.013 338.044 187.727C338.044 191.391 338.653 194.622 339.87 197.42C341.087 200.218 342.812 202.401 345.045 203.97C347.279 205.538 349.914 206.322 352.95 206.322C355.635 206.322 358.019 205.689 360.102 204.422C362.185 203.142 363.81 201.31 364.977 198.926C366.144 196.529 366.702 193.65 366.652 190.287L367.179 190.739H353.327V189.534H367.857V190.739C367.857 194.252 367.217 197.263 365.937 199.773C364.657 202.27 362.894 204.189 360.648 205.532C358.402 206.862 355.836 207.527 352.95 207.527C349.688 207.527 346.846 206.699 344.424 205.043C342.015 203.374 340.146 201.053 338.816 198.079C337.498 195.105 336.839 191.655 336.839 187.727C336.839 184.766 337.216 182.075 337.969 179.653C338.734 177.219 339.819 175.13 341.225 173.386C342.643 171.629 344.33 170.28 346.288 169.339C348.245 168.398 350.416 167.928 352.8 167.928C355.058 167.928 357.053 168.317 358.785 169.094C360.516 169.872 361.991 170.895 363.208 172.162C364.437 173.417 365.41 174.778 366.125 176.246C366.853 177.702 367.33 179.12 367.555 180.5H366.351ZM377.248 207V178.091H378.453V182.382H378.603C379.13 180.977 380.071 179.848 381.426 178.994C382.794 178.141 384.438 177.714 386.358 177.714C388.541 177.714 390.279 178.254 391.571 179.333C392.876 180.412 393.773 181.855 394.262 183.662H394.413C394.89 181.855 395.856 180.412 397.311 179.333C398.767 178.254 400.586 177.714 402.77 177.714C405.668 177.714 407.807 178.637 409.188 180.481C410.58 182.313 411.277 184.678 411.277 187.577V207H410.072V187.577C410.072 185.017 409.495 182.934 408.341 181.328C407.186 179.722 405.329 178.919 402.77 178.919C400.21 178.919 398.252 179.735 396.897 181.366C395.542 182.984 394.865 185.055 394.865 187.577V207H393.66V187.577C393.66 185.017 393.083 182.934 391.929 181.328C390.774 179.722 388.917 178.919 386.358 178.919C384.651 178.919 383.208 179.289 382.029 180.029C380.862 180.77 379.971 181.792 379.356 183.097C378.754 184.402 378.453 185.895 378.453 187.577V207H377.248ZM422.405 207V168.455H423.609V185.469H423.76C424.262 183.863 424.989 182.476 425.943 181.309C426.897 180.13 428.02 179.226 429.312 178.599C430.604 177.959 432.016 177.639 433.547 177.639C435.805 177.639 437.769 178.298 439.438 179.615C441.106 180.933 442.399 182.721 443.315 184.979C444.231 187.238 444.689 189.785 444.689 192.621C444.689 195.469 444.231 198.022 443.315 200.281C442.411 202.539 441.125 204.327 439.456 205.645C437.8 206.95 435.83 207.602 433.547 207.602C432.003 207.602 430.585 207.282 429.293 206.642C428.013 206.002 426.903 205.099 425.962 203.932C425.021 202.753 424.287 201.366 423.76 199.773H423.609V207H422.405ZM423.609 192.621C423.609 195.231 424.011 197.577 424.814 199.66C425.617 201.73 426.758 203.374 428.239 204.591C429.732 205.795 431.501 206.398 433.547 206.398C435.592 206.398 437.355 205.795 438.835 204.591C440.328 203.374 441.477 201.73 442.28 199.66C443.083 197.577 443.484 195.231 443.484 192.621C443.484 190.011 443.076 187.671 442.261 185.6C441.458 183.518 440.31 181.874 438.816 180.669C437.336 179.452 435.579 178.844 433.547 178.844C431.514 178.844 429.751 179.452 428.258 180.669C426.777 181.874 425.629 183.518 424.814 185.6C424.011 187.671 423.609 190.011 423.609 192.621ZM454.08 207V168.455H455.285V187.125H479.828V168.455H481.032V207H479.828V188.33H455.285V207H454.08Z" fill="black"/>
<defs>
<filter id="filter0_b_0_1" x="23.5" y="2.5" width="293" height="276" filterUnits="userSpaceOnUse" color-interpolation-filters="sRGB">
<feFlood flood-opacity="0" result="BackgroundImageFix"/>
<feGaussianBlur in="BackgroundImage" stdDeviation="2"/>
<feComposite in2="SourceAlpha" operator="in" result="effect1_backgroundBlur_0_1"/>
<feBlend mode="normal" in="SourceGraphic" in2="effect1_backgroundBlur_0_1" result="shape"/>
</filter>
</defs>
</svg>
